<svg xmlns="http://www.w3.org/2000/svg" width="50" height="39" viewBox="0 0 50 39">
  <path id="Icon_awesome-address-card" data-name="Icon awesome-address-card" d="M46.05,2h-42a3.889,3.889,0,0,0-4,4V37a3.889,3.889,0,0,0,4,4h42a3.889,3.889,0,0,0,4-4V6A3.889,3.889,0,0,0,46.05,2Zm-31,9c3.064,0,6,1.936,6,5a6.351,6.351,0,0,1-6,6c-3.064,0-5-2.936-5-6A4.659,4.659,0,0,1,15.05,11Zm10,20a2.152,2.152,0,0,1-2,2h-16c-1.076,0-1-1.08-1-2V29a4.731,4.731,0,0,1,5-5h1a7.189,7.189,0,0,0,3,1,12.157,12.157,0,0,0,4-1h0c3.22,0,6,2.24,6,5Zm19-4c0,.382.382,0,0,0h-13c-.382,0,0,.382,0,0V25c0-.382-.382-1,0-1h13c.382,0,0,.618,0,1Zm0-6c0,.382.382,1,0,1h-13c-.382,0,0-.618,0-1V20c0-.382-.382-1,0-1h13c.382,0,0,.618,0,1Zm0-6c0,.382.382,1,0,1h-13c-.382,0,0-.618,0-1V14c0-.382-.382-1,0-1h13c.382,0,0,.618,0,1Z" transform="translate(-0.05 -2)" fill="#fff"/>
</svg>
