<svg xmlns="http://www.w3.org/2000/svg" width="106" height="96" viewBox="0 0 106 96">
  <g id="Groupe_16" data-name="Groupe 16" transform="translate(-359 -2039)">
    <ellipse id="Ellipse_3" data-name="Ellipse 3" cx="53" cy="48" rx="53" ry="48" transform="translate(359 2039)" fill="#fff"/>
    <path id="Union_2" data-name="Union 2" d="M-2338.395,487.654a28.584,28.584,0,0,1-15.753-9.987c-6.56-8.319-7.211-14.42-7.211-14.42l.116-1.376.119-1.115.969-1.717.259-.674.614-.615a7.011,7.011,0,0,1,4.394-2.552l47.142-7.467,0-.185-.262-.894.017-1-.371-1.062-.312-1.228-.7-1.346-.536-1.121-.534-1.287-.706-.957-.544-.677-.981-1.128-.762-.958-.819-.848-1.318-.968a7.95,7.95,0,0,0-1.149-1.076l-1.268-.633-1.1-.575-1.158-.52-.725-.181-.43-.075-.424-.076-.814-.291-.986-.174-.93-.165-1.427-.251-2.362-.041-1.224-.022-.207-.061-.373.067-1.263.116-1.439.48-1.192.354-1.356.326-1.057.547-.753.431-1.27.793-1.065.6-.967.676-1.163,1.149a7.939,7.939,0,0,0-1.242.966c-.207.288-.824,1.153-.824,1.153l-.742,1-.7,1.062-.579,1.364-.642,1.072-.174.985-.541,1.146-.57,3.228-.212,1.2-.447.937-.454.654-.824,1.151-.763.487-.635.4-.973.392-1.32.445-1.044.154-1.04-.183-.822-.145-.876-.155-.818-.482-.754-.528-.609-.39-.45-.643-.516-.6-.442-.7-.331-.679-.267-.724-.148-.76-.177-.595.183-1.039.2-.723.11-.623.126-.568.093-.678.138-.489.094-.523.3-1.129.235-.754.131-.593.1-.572.286-.745.225-.552.2-.555.2-.555.275-.542.432-.848.3-.538.249-.675.318-.638.313-.611.381-.7.741-.845.281-.567.307-.433.492-.607.48-.686.393-.471.463-.586.483-.556.416-.466.326-.385.46-.427.386-.439.454-.389.476-.507.457-.408.557-.39.438-.436.547-.339.575-.49.532-.394.808-.5.331-.275.481-.249.6-.331.582-.386.589-.281.54-.29.456-.254.506-.245.506-.244.527-.217.427-.231.526-.217.518-.165.389-.163.521-.19.655-.219.606-.228.71-.234.651-.194.613-.122.647-.168.607-.1.608-.1.638-.119.634-.095.762-.1.7-.16.808-.063.7-.055.571-.028,1.077.01.729-.051.828.043,1.4.168,2.83.422.16.044.317.005.781.166.581.137.58.112.581.111.579.187.906.293.579.213.707.139.679.214.654.213.754.266.952.6.6.188.477.235.677.392.753.368.526.311.652.365.625.392.527.337.431.261.494.387.5.312.454.387.575.39.474.388.472.489.5.363.423.488.573.491.472.464.62.719.325.284.321.435.421.539.471.514.372.537.37.488.322.41.321.461.321.46.3.487.3.383.294.486.245.485.221.358.27.485.319.612.32.563.342.663.293.612.218.586.267.612.193.585.193.585.217.611.192.61.214.737.267.661.189.788.165.687.117.558.159,1.065.165.712.086.823.051,1.4.026,2.858-.09.808.008.986-.066.885-.041.353a7.04,7.04,0,0,1-5.913,7.567l-44.108,6.987.175.229.763.834.763.834.764.834,1.169.787,1.084,1.006.945.362,1.5.939,1.754.673,1.358.7,1.018.777.821,1.089.759,1.452.473,1.187.131,1.675-.388,2.017-1.038,1.691-1.27,1.292-1.624,1-1.724.654Z" transform="translate(2739.654 1635.712)" fill="#8488d4"/>
  </g>
</svg>
