<svg xmlns="http://www.w3.org/2000/svg" width="106" height="96" viewBox="0 0 106 96">
  <g id="Groupe_13" data-name="Groupe 13" transform="translate(-927 -2039)">
    <ellipse id="Ellipse_3" data-name="Ellipse 3" cx="53" cy="48" rx="53" ry="48" transform="translate(927 2039)" fill="#fff"/>
    <path id="Icon_ionic-ios-settings" data-name="Icon ionic-ios-settings" d="M54.8,32.195c0-2.991,1.351-5.975,4-7a26.382,26.382,0,0,0-3-8,8.39,8.39,0,0,1-3,1,7.059,7.059,0,0,1-5-2c-2.122-2.122-2.139-5.408-1-8-2.464-1.524-5.095-3.3-8-4a8.1,8.1,0,0,1-7,5,8.105,8.105,0,0,1-7-5c-2.919.7-5.522,2.476-8,4,1.153,2.578,1.122,5.878-1,8a7.036,7.036,0,0,1-5,2,8.122,8.122,0,0,1-3-1,26.907,26.907,0,0,0-3,8c2.635,1.011,4,4,4,7a5.9,5.9,0,0,1-4,6,26.382,26.382,0,0,0,3,8c.911-.4,2.032,0,3,0a7.059,7.059,0,0,1,5,2c2.108,2.108,2.139,5.422,1,8a26.523,26.523,0,0,0,8,3c1.011-2.635,4.009-4,7-4s5.989,1.365,7,4a26.382,26.382,0,0,0,8-3c-1.139-2.578-1.108-5.878,1-8a7.012,7.012,0,0,1,5-2c.968,0,2.1-.4,3,0a26.523,26.523,0,0,0,3-8A5.9,5.9,0,0,1,54.8,32.195Zm-23,11a10.731,10.731,0,0,1-11-11c0-6.28,4.691-12,11-12a12.454,12.454,0,0,1,12,12C43.8,38.475,38.109,43.195,31.8,43.195Z" transform="translate(947.2 2055.806)" fill="#8488d4"/>
  </g>
</svg>
