<svg xmlns="http://www.w3.org/2000/svg" width="206" height="214" viewBox="0 0 206 214">
  <path id="Icon_awesome-twitter-square" data-name="Icon awesome-twitter-square" d="M184.141,2.2h-162c-12.188,0-22,10.325-22,23v168c0,12.675,9.812,23,22,23h162c12.188,0,22-10.325,22-23V25.2C206.141,12.527,196.329,2.2,184.141,2.2Zm-23,76c.092,1.339,0,2.661,0,4,0,41.467-29.532,89-85,89a85.264,85.264,0,0,1-47-14,74.665,74.665,0,0,0,8,1c14.12,0,26.652-5.582,37-14-13.246-.287-24.183-9.565-28-22,4.645.717,8.217,1.291,13,0-13.8-2.917-24-15.743-24-31h0a30.859,30.859,0,0,0,14,4,31.977,31.977,0,0,1-14-26c0-5.835,2.378-11.361,5-16,14.856,19.036,36.98,31.661,62,33-4.277-21.284,10.6-39,29-39a29.556,29.556,0,0,1,22,10c6.807-1.339,13.2-4.413,19-8-2.254,7.27-6.745,14.126-13,18a56.042,56.042,0,0,0,17-5A63.315,63.315,0,0,1,161.141,78.2Z" transform="translate(-0.141 -2.201)"/>
</svg>
