<svg xmlns="http://www.w3.org/2000/svg" width="206" height="207" viewBox="0 0 206 207">
  <path id="Icon_ionic-logo-whatsapp" data-name="Icon ionic-logo-whatsapp" d="M107.242,1.783a101.016,101.016,0,0,0-101,101c0,19,4.769,36.837,14,52l-18,54,56-18a100.882,100.882,0,1,0,49-189Zm51,139c-2.385,5.912-13.241,11.752-18,12s-5.082,3.259-31-8-41.771-38.237-43-40-10.475-14.367-10-27,7.531-18.521,10-21a9.968,9.968,0,0,1,7-3c2.041-.033,3.49-.056,5,0s4.037-.219,6,5,6.4,17.693,7,19a5.736,5.736,0,0,1,0,5c-.927,1.684-.655,2.549-2,4s-3.793,2.891-5,4c-1.346,1.228-2.415,2.374-1,5s6.567,11.911,14,19c9.552,9.113,17.465,11.623,20,13s4.424,1.659,6,0,6.176-7.5,8-10,3.658-1.942,6-1,15.458,7.62,18,9,4.393,1.907,5,3S160.626,134.87,158.242,140.783Z" transform="translate(-2.242 -1.783)"/>
</svg>
